<svg xmlns="http://www.w3.org/2000/svg" viewBox="0 0 100 100" fill="none">
  <defs>
    <!-- Gradient for the main icon body -->
    <linearGradient id="strideGrad" x1="0%" y1="0%" x2="100%" y2="100%">
      <stop offset="0%" stop-color="#af101a" />
      <stop offset="100%" stop-color="#ff4d4f" />
    </linearGradient>
  </defs>
  <!-- Sleek outer ring indicating motion/cyclical flow -->
  <circle cx="50" cy="50" r="44" stroke="url(#strideGrad)" stroke-width="3" stroke-dasharray="160 60" transform="rotate(-45 50 50)" opacity="0.8"/>
  <!-- The dynamic S-wing representing Sport & Stride -->
  <g>
    <!-- Top wing of the S -->
    <path d="M52,20 C66,20 78,30 78,44 C78,54 67,59 56,61 C43,63 34,67 34,75 C34,83 45,85 53,85 C67,85 80,75 82,66 C75,72 65,75 56,75 C43,75 41,68 47,64 C56,58 70,55 74,46 C78,37 70,27 54,25 C41,23 28,27 23,35 C28,28 39,20 52,20 Z" fill="url(#strideGrad)"/>
    <!-- Bottom wing/accent of the S -->
    <path d="M42,15 C30,19 18,33 18,47 C18,59 28,69 39,69 C49,69 55,61 53,55 C51,49 43,46 33,45 C41,39 47,31 45,25 C43,19 35,16 27,16 C33,16 39,17 42,15 Z" fill="url(#strideGrad)" opacity="0.6"/>
  </g>
</svg>